<?xml version="1.0" encoding="UTF-8" standalone="no"?><!DOCTYPE svg PUBLIC "-//W3C//DTD SVG 1.1//EN" "http://www.w3.org/Graphics/SVG/1.1/DTD/svg11.dtd"><svg width="100%" height="100%" viewBox="0 0 2250 2250" version="1.1" xmlns="http://www.w3.org/2000/svg" xmlns:xlink="http://www.w3.org/1999/xlink" xml:space="preserve" xmlns:serif="http://www.serif.com/" style="fill-rule:evenodd;clip-rule:evenodd;stroke-linejoin:round;stroke-miterlimit:2;"><circle cx="1125" cy="1125" r="1081.35" style="fill:url(#_Radial1);"/><path d="M1125,43.653c147.097,-2.634 287.956,23.984 416.76,75.119c53.358,21.183 104.59,46.642 153.346,75.84c73.871,44.237 142.06,97.085 203.068,157.214c81.382,80.208 150.134,173.296 202.835,275.905c76.568,149.079 119.082,318.307 118.967,497.269c-0.588,301.94 -123.541,575.328 -322.03,772.946c-198.151,197.279 -471.522,319.031 -772.946,318.292c-300.82,-0.814 -573.082,-123.518 -769.848,-321.39c-196.336,-197.439 -317.501,-469.685 -316.63,-769.848c0.884,-299.477 123.114,-570.488 320.146,-766.332c196.565,-195.382 467.563,-315.938 766.332,-315.015Zm0,-0c-298.045,0.92 -567.715,122.634 -762.623,318.724c-194.445,195.623 -314.471,465.286 -313.593,762.623c0.86,296.651 121.979,565.069 317.108,759.108c194.697,193.609 463.114,313.148 759.108,312.348c295.389,-0.725 562.68,-121.262 756.01,-315.446c192.992,-193.843 312.282,-461.137 311.708,-756.01c-0.112,-174.444 -42.544,-338.941 -116.562,-484.571c-51.016,-100.373 -117.084,-191.774 -195.374,-271.211c-58.917,-59.778 -124.603,-112.856 -195.978,-157.841c-47.306,-29.815 -97.046,-56.093 -148.876,-78.556c-126.257,-54.722 -264.867,-86.552 -410.928,-89.168Z" style="fill:#5200a0;"/><g transform="matrix(2223.32,0,0,2223.32,1770.93,2037.15)"></g><text x="479.067px" y="2037.15px" style="font-family:'Distress';font-size:2223.32px;fill:#5200a0;">?</text><g transform="matrix(243.546,0,0,243.546,840.469,1186.86)"></g><text x="97.166px" y="1186.86px" style="font-family:'SourceSansPro-Black', 'Source Sans Pro', sans-serif;font-weight:900;font-size:243.546px;">maybe</text><defs><radialGradient id="_Radial1" cx="0" cy="0" r="1" gradientUnits="userSpaceOnUse" gradientTransform="matrix(2162.69,0,0,2162.69,43.653,1125)"><stop offset="0" style="stop-color:#fff;stop-opacity:1"/><stop offset="0.52" style="stop-color:#d6c3e9;stop-opacity:0.93"/><stop offset="1" style="stop-color:#5100a0;stop-opacity:0.69"/></radialGradient></defs></svg>